<?xml version="1.0" encoding="utf-8"?>
<svg xmlns="http://www.w3.org/2000/svg" xmlns:xlink="http://www.w3.org/1999/xlink" width="700" height="450" viewBox="0 0 2800 1800">
<defs>
  <clipPath id="clip790">
    <rect x="0" y="0" width="2800" height="1800"/>
  </clipPath>
</defs>
<path clip-path="url(#clip790)" d="
M0 1800 L2800 1800 L2800 -2.27374e-13 L0 -2.27374e-13  Z
  " fill="#000000" fill-rule="evenodd" fill-opacity="0"/>
<defs>
  <clipPath id="clip791">
    <rect x="560" y="0" width="1961" height="1800"/>
  </clipPath>
</defs>
<path clip-path="url(#clip790)" d="
M47.2441 1752.76 L2752.76 1752.76 L2752.76 47.2441 L47.2441 47.2441  Z
  " fill="#000000" fill-rule="evenodd" fill-opacity="0"/>
<defs>
  <clipPath id="clip792">
    <rect x="47" y="47" width="2707" height="1707"/>
  </clipPath>
</defs>
<polyline clip-path="url(#clip792)" style="stroke:#9457b1; stroke-linecap:butt; stroke-linejoin:round; stroke-width:36; stroke-opacity:1; fill:none" points="
  123.815,1391.74 125.942,1393.26 128.069,1394.79 130.196,1396.32 132.323,1397.86 134.45,1399.41 136.577,1400.96 138.704,1402.52 140.831,1404.09 142.958,1405.67 
  145.085,1407.25 147.212,1408.84 149.339,1410.43 151.466,1412.04 153.593,1413.64 155.72,1415.26 157.847,1416.88 159.974,1418.51 162.101,1420.15 164.228,1421.79 
  166.355,1423.44 168.482,1425.09 170.609,1426.75 172.736,1428.42 174.863,1430.09 176.99,1431.77 179.117,1433.46 181.244,1435.15 183.37,1436.85 185.497,1438.55 
  187.624,1440.26 189.751,1441.97 191.878,1443.69 194.005,1445.42 196.132,1447.15 198.259,1448.88 200.386,1450.62 202.513,1452.37 204.64,1454.12 206.767,1455.88 
  208.894,1457.64 211.021,1459.41 213.148,1461.18 215.275,1462.95 217.402,1464.73 219.529,1466.52 221.656,1468.31 223.783,1470.1 225.91,1471.9 228.037,1473.7 
  230.164,1475.51 232.291,1477.32 234.418,1479.13 236.545,1480.95 238.672,1482.77 240.799,1484.59 242.926,1486.42 245.053,1488.25 247.18,1490.08 249.307,1491.92 
  251.434,1493.76 253.561,1495.6 255.688,1497.45 257.815,1499.3 259.942,1501.15 262.069,1503 264.196,1504.86 266.322,1506.71 268.449,1508.57 270.576,1510.43 
  272.703,1512.3 274.83,1514.16 276.957,1516.02 279.084,1517.89 281.211,1519.76 283.338,1521.63 285.465,1523.5 287.592,1525.37 289.719,1527.24 291.846,1529.11 
  293.973,1530.98 296.1,1532.85 298.227,1534.73 300.354,1536.6 302.481,1538.47 304.608,1540.34 306.735,1542.21 308.862,1544.08 310.989,1545.95 313.116,1547.81 
  315.243,1549.68 317.37,1551.55 319.497,1553.41 321.624,1555.27 323.751,1557.13 325.878,1558.99 328.005,1560.84 330.132,1562.69 332.259,1564.54 334.386,1566.39 
  336.513,1568.23 338.64,1570.07 340.767,1571.91 342.894,1573.74 345.021,1575.57 347.148,1577.4 349.275,1579.22 351.401,1581.04 353.528,1582.85 355.655,1584.66 
  357.782,1586.47 359.909,1588.26 362.036,1590.06 364.163,1591.85 366.29,1593.63 368.417,1595.41 370.544,1597.18 372.671,1598.94 374.798,1600.7 376.925,1602.45 
  379.052,1604.19 381.179,1605.93 383.306,1607.66 385.433,1609.38 387.56,1611.1 389.687,1612.8 391.814,1614.5 393.941,1616.19 396.068,1617.87 398.195,1619.55 
  400.322,1621.21 402.449,1622.87 404.576,1624.51 406.703,1626.15 408.83,1627.77 410.957,1629.39 413.084,1630.99 415.211,1632.59 417.338,1634.17 419.465,1635.74 
  421.592,1637.31 423.719,1638.86 425.846,1640.39 427.973,1641.92 430.1,1643.44 432.227,1644.94 434.353,1646.43 436.48,1647.9 438.607,1649.37 440.734,1650.82 
  442.861,1652.25 444.988,1653.67 447.115,1655.08 449.242,1656.48 451.369,1657.85 453.496,1659.22 455.623,1660.57 457.75,1661.9 459.877,1663.22 462.004,1664.52 
  464.131,1665.81 466.258,1667.08 468.385,1668.33 470.512,1669.57 472.639,1670.79 474.766,1671.99 476.893,1673.18 479.02,1674.34 481.147,1675.49 483.274,1676.62 
  485.401,1677.74 487.528,1678.83 489.655,1679.9 491.782,1680.96 493.909,1681.99 496.036,1683.01 498.163,1684.01 500.29,1684.98 502.417,1685.94 504.544,1686.87 
  506.671,1687.78 508.798,1688.67 510.925,1689.54 513.052,1690.39 515.179,1691.22 517.306,1692.02 519.432,1692.8 521.559,1693.56 523.686,1694.29 525.813,1695.01 
  527.94,1695.69 530.067,1696.36 532.194,1697 534.321,1697.61 536.448,1698.2 538.575,1698.77 540.702,1699.31 542.829,1699.83 544.956,1700.32 547.083,1700.78 
  549.21,1701.22 551.337,1701.63 553.464,1702.02 555.591,1702.37 557.718,1702.7 559.845,1703.01 561.972,1703.28 564.099,1703.53 566.226,1703.75 568.353,1703.94 
  570.48,1704.11 572.607,1704.24 574.734,1704.35 576.861,1704.42 578.988,1704.47 581.115,1704.49 583.242,1704.47 585.369,1704.43 587.496,1704.36 589.623,1704.25 
  591.75,1704.12 593.877,1703.95 596.004,1703.75 598.131,1703.52 600.258,1703.26 602.384,1702.97 604.511,1702.64 606.638,1702.28 608.765,1701.89 610.892,1701.47 
  613.019,1701.01 615.146,1700.52 617.273,1700 619.4,1699.44 621.527,1698.85 623.654,1698.23 625.781,1697.57 627.908,1696.87 630.035,1696.14 632.162,1695.38 
  634.289,1694.58 636.416,1693.74 638.543,1692.87 640.67,1691.97 642.797,1691.03 644.924,1690.05 647.051,1689.04 649.178,1687.98 651.305,1686.9 653.432,1685.77 
  655.559,1684.61 657.686,1683.41 659.813,1682.18 661.94,1680.91 664.067,1679.6 666.194,1678.25 668.321,1676.86 670.448,1675.44 672.575,1673.98 674.702,1672.47 
  676.829,1670.93 678.956,1669.36 681.083,1667.74 683.21,1666.08 685.337,1664.39 687.463,1662.66 689.59,1660.88 691.717,1659.07 693.844,1657.22 695.971,1655.32 
  698.098,1653.39 700.225,1651.42 702.352,1649.41 704.479,1647.36 706.606,1645.26 708.733,1643.13 710.86,1640.96 712.987,1638.74 715.114,1636.49 717.241,1634.19 
  719.368,1631.86 721.495,1629.48 723.622,1627.07 725.749,1624.61 727.876,1622.11 730.003,1619.57 732.13,1616.98 734.257,1614.36 736.384,1611.7 738.511,1608.99 
  740.638,1606.25 742.765,1603.46 744.892,1600.63 747.019,1597.76 749.146,1594.84 751.273,1591.89 753.4,1588.89 755.527,1585.86 757.654,1582.78 759.781,1579.66 
  761.908,1576.49 764.035,1573.29 766.162,1570.05 768.289,1566.76 770.415,1563.43 772.542,1560.06 774.669,1556.65 776.796,1553.2 778.923,1549.7 781.05,1546.17 
  783.177,1542.59 785.304,1538.97 787.431,1535.31 789.558,1531.61 791.685,1527.87 793.812,1524.09 795.939,1520.27 798.066,1516.4 800.193,1512.5 802.32,1508.55 
  804.447,1504.56 806.574,1500.53 808.701,1496.47 810.828,1492.36 812.955,1488.21 815.082,1484.02 817.209,1479.79 819.336,1475.52 821.463,1471.21 823.59,1466.86 
  825.717,1462.48 827.844,1458.05 829.971,1453.58 832.098,1449.08 834.225,1444.53 836.352,1439.95 838.479,1435.32 840.606,1430.66 842.733,1425.96 844.86,1421.23 
  846.987,1416.45 849.114,1411.64 851.241,1406.79 853.368,1401.9 855.494,1396.97 857.621,1392.01 859.748,1387.01 861.875,1381.98 864.002,1376.9 866.129,1371.79 
  868.256,1366.65 870.383,1361.47 872.51,1356.25 874.637,1351 876.764,1345.72 878.891,1340.4 881.018,1335.04 883.145,1329.65 885.272,1324.23 887.399,1318.78 
  889.526,1313.29 891.653,1307.76 893.78,1302.21 895.907,1296.62 898.034,1291 900.161,1285.35 902.288,1279.66 904.415,1273.95 906.542,1268.2 908.669,1262.42 
  910.796,1256.62 912.923,1250.78 915.05,1244.91 917.177,1239.01 919.304,1233.09 921.431,1227.13 923.558,1221.15 925.685,1215.14 927.812,1209.1 929.939,1203.04 
  932.066,1196.95 934.193,1190.83 936.32,1184.68 938.446,1178.51 940.573,1172.32 942.7,1166.1 944.827,1159.85 946.954,1153.58 949.081,1147.29 951.208,1140.97 
  953.335,1134.63 955.462,1128.27 957.589,1121.88 959.716,1115.48 961.843,1109.05 963.97,1102.6 966.097,1096.13 968.224,1089.64 970.351,1083.13 972.478,1076.61 
  974.605,1070.06 976.732,1063.5 978.859,1056.92 980.986,1050.32 983.113,1043.7 985.24,1037.07 987.367,1030.42 989.494,1023.75 991.621,1017.08 993.748,1010.38 
  995.875,1003.68 998.002,996.955 1000.13,990.222 1002.26,983.475 1004.38,976.717 1006.51,969.948 1008.64,963.167 1010.76,956.376 1012.89,949.575 1015.02,942.764 
  1017.14,935.945 1019.27,929.117 1021.4,922.281 1023.53,915.437 1025.65,908.587 1027.78,901.731 1029.91,894.869 1032.03,888.001 1034.16,881.129 1036.29,874.252 
  1038.41,867.372 1040.54,860.489 1042.67,853.603 1044.8,846.715 1046.92,839.826 1049.05,832.935 1051.18,826.045 1053.3,819.154 1055.43,812.264 1057.56,805.376 
  1059.68,798.489 1061.81,791.605 1063.94,784.724 1066.06,777.846 1068.19,770.973 1070.32,764.104 1072.45,757.241 1074.57,750.383 1076.7,743.531 1078.83,736.687 
  1080.95,729.85 1083.08,723.021 1085.21,716.201 1087.33,709.39 1089.46,702.589 1091.59,695.799 1093.72,689.019 1095.84,682.251 1097.97,675.495 1100.1,668.752 
  1102.22,662.022 1104.35,655.306 1106.48,648.605 1108.6,641.919 1110.73,635.248 1112.86,628.594 1114.99,621.956 1117.11,615.336 1119.24,608.733 1121.37,602.149 
  1123.49,595.585 1125.62,589.04 1127.75,582.515 1129.87,576.012 1132,569.529 1134.13,563.069 1136.26,556.631 1138.38,550.217 1140.51,543.826 1142.64,537.46 
  1144.76,531.118 1146.89,524.802 1149.02,518.512 1151.14,512.249 1153.27,506.012 1155.4,499.804 1157.52,493.624 1159.65,487.473 1161.78,481.351 1163.91,475.259 
  1166.03,469.198 1168.16,463.168 1170.29,457.169 1172.41,451.203 1174.54,445.27 1176.67,439.37 1178.79,433.504 1180.92,427.672 1183.05,421.875 1185.18,416.114 
  1187.3,410.389 1189.43,404.7 1191.56,399.049 1193.68,393.435 1195.81,387.859 1197.94,382.322 1200.06,376.825 1202.19,371.367 1204.32,365.949 1206.45,360.572 
  1208.57,355.236 1210.7,349.942 1212.83,344.691 1214.95,339.482 1217.08,334.316 1219.21,329.195 1221.33,324.117 1223.46,319.084 1225.59,314.097 1227.72,309.155 
  1229.84,304.26 1231.97,299.411 1234.1,294.609 1236.22,289.855 1238.35,285.149 1240.48,280.491 1242.6,275.882 1244.73,271.323 1246.86,266.813 1248.98,262.354 
  1251.11,257.946 1253.24,253.588 1255.37,249.283 1257.49,245.029 1259.62,240.827 1261.75,236.679 1263.87,232.583 1266,228.542 1268.13,224.554 1270.25,220.621 
  1272.38,216.742 1274.51,212.919 1276.64,209.151 1278.76,205.439 1280.89,201.783 1283.02,198.184 1285.14,194.642 1287.27,191.157 1289.4,187.73 1291.52,184.361 
  1293.65,181.051 1295.78,177.799 1297.91,174.606 1300.03,171.472 1302.16,168.398 1304.29,165.384 1306.41,162.43 1308.54,159.537 1310.67,156.704 1312.79,153.933 
  1314.92,151.223 1317.05,148.574 1319.17,145.988 1321.3,143.464 1323.43,141.002 1325.56,138.602 1327.68,136.266 1329.81,133.993 1331.94,131.783 1334.06,129.637 
  1336.19,127.554 1338.32,125.536 1340.44,123.582 1342.57,121.692 1344.7,119.867 1346.83,118.106 1348.95,116.411 1351.08,114.78 1353.21,113.215 1355.33,111.715 
  1357.46,110.281 1359.59,108.913 1361.71,107.61 1363.84,106.374 1365.97,105.203 1368.1,104.099 1370.22,103.062 1372.35,102.09 1374.48,101.186 1376.6,100.348 
  1378.73,99.5763 1380.86,98.8717 1382.98,98.2342 1385.11,97.6634 1387.24,97.1597 1389.37,96.7231 1391.49,96.3535 1393.62,96.0511 1395.75,95.8159 1397.87,95.6478 
  1400,95.547 1402.13,95.5133 1404.25,95.547 1406.38,95.6478 1408.51,95.8159 1410.63,96.0511 1412.76,96.3535 1414.89,96.7229 1417.02,97.1597 1419.14,97.6634 
  1421.27,98.2339 1423.4,98.8717 1425.52,99.5763 1427.65,100.348 1429.78,101.186 1431.9,102.09 1434.03,103.062 1436.16,104.099 1438.29,105.203 1440.41,106.374 
  1442.54,107.61 1444.67,108.913 1446.79,110.281 1448.92,111.715 1451.05,113.215 1453.17,114.78 1455.3,116.41 1457.43,118.106 1459.56,119.867 1461.68,121.692 
  1463.81,123.581 1465.94,125.536 1468.06,127.554 1470.19,129.637 1472.32,131.783 1474.44,133.993 1476.57,136.266 1478.7,138.602 1480.83,141.002 1482.95,143.464 
  1485.08,145.988 1487.21,148.574 1489.33,151.223 1491.46,153.933 1493.59,156.704 1495.71,159.537 1497.84,162.43 1499.97,165.384 1502.09,168.398 1504.22,171.472 
  1506.35,174.606 1508.48,177.799 1510.6,181.051 1512.73,184.361 1514.86,187.73 1516.98,191.157 1519.11,194.642 1521.24,198.184 1523.36,201.783 1525.49,205.439 
  1527.62,209.151 1529.75,212.918 1531.87,216.742 1534,220.621 1536.13,224.554 1538.25,228.542 1540.38,232.583 1542.51,236.679 1544.63,240.827 1546.76,245.029 
  1548.89,249.283 1551.02,253.588 1553.14,257.946 1555.27,262.354 1557.4,266.813 1559.52,271.323 1561.65,275.882 1563.78,280.491 1565.9,285.149 1568.03,289.855 
  1570.16,294.609 1572.28,299.411 1574.41,304.26 1576.54,309.155 1578.67,314.097 1580.79,319.085 1582.92,324.117 1585.05,329.195 1587.17,334.317 1589.3,339.482 
  1591.43,344.691 1593.55,349.942 1595.68,355.236 1597.81,360.572 1599.94,365.949 1602.06,371.367 1604.19,376.825 1606.32,382.322 1608.44,387.859 1610.57,393.435 
  1612.7,399.049 1614.82,404.7 1616.95,410.389 1619.08,416.114 1621.21,421.875 1623.33,427.672 1625.46,433.504 1627.59,439.37 1629.71,445.27 1631.84,451.203 
  1633.97,457.169 1636.09,463.168 1638.22,469.198 1640.35,475.259 1642.48,481.351 1644.6,487.473 1646.73,493.624 1648.86,499.804 1650.98,506.012 1653.11,512.249 
  1655.24,518.512 1657.36,524.802 1659.49,531.118 1661.62,537.459 1663.74,543.826 1665.87,550.217 1668,556.631 1670.13,563.069 1672.25,569.529 1674.38,576.012 
  1676.51,582.515 1678.63,589.04 1680.76,595.585 1682.89,602.15 1685.01,608.733 1687.14,615.336 1689.27,621.956 1691.4,628.594 1693.52,635.248 1695.65,641.919 
  1697.78,648.605 1699.9,655.306 1702.03,662.022 1704.16,668.752 1706.28,675.495 1708.41,682.251 1710.54,689.019 1712.67,695.799 1714.79,702.589 1716.92,709.39 
  1719.05,716.201 1721.17,723.021 1723.3,729.85 1725.43,736.687 1727.55,743.531 1729.68,750.383 1731.81,757.24 1733.94,764.104 1736.06,770.973 1738.19,777.846 
  1740.32,784.724 1742.44,791.605 1744.57,798.489 1746.7,805.376 1748.82,812.265 1750.95,819.154 1753.08,826.045 1755.2,832.935 1757.33,839.826 1759.46,846.715 
  1761.59,853.603 1763.71,860.489 1765.84,867.372 1767.97,874.252 1770.09,881.129 1772.22,888.001 1774.35,894.869 1776.47,901.731 1778.6,908.587 1780.73,915.437 
  1782.86,922.281 1784.98,929.117 1787.11,935.945 1789.24,942.764 1791.36,949.575 1793.49,956.376 1795.62,963.167 1797.74,969.948 1799.87,976.717 1802,983.475 
  1804.13,990.221 1806.25,996.955 1808.38,1003.68 1810.51,1010.38 1812.63,1017.08 1814.76,1023.75 1816.89,1030.42 1819.01,1037.07 1821.14,1043.7 1823.27,1050.32 
  1825.39,1056.92 1827.52,1063.5 1829.65,1070.06 1831.78,1076.61 1833.9,1083.13 1836.03,1089.64 1838.16,1096.13 1840.28,1102.6 1842.41,1109.05 1844.54,1115.48 
  1846.66,1121.88 1848.79,1128.27 1850.92,1134.63 1853.05,1140.97 1855.17,1147.29 1857.3,1153.58 1859.43,1159.85 1861.55,1166.1 1863.68,1172.32 1865.81,1178.51 
  1867.93,1184.68 1870.06,1190.83 1872.19,1196.95 1874.32,1203.04 1876.44,1209.1 1878.57,1215.14 1880.7,1221.15 1882.82,1227.13 1884.95,1233.09 1887.08,1239.01 
  1889.2,1244.91 1891.33,1250.78 1893.46,1256.61 1895.59,1262.42 1897.71,1268.2 1899.84,1273.95 1901.97,1279.66 1904.09,1285.35 1906.22,1291 1908.35,1296.62 
  1910.47,1302.21 1912.6,1307.76 1914.73,1313.29 1916.85,1318.78 1918.98,1324.23 1921.11,1329.65 1923.24,1335.04 1925.36,1340.4 1927.49,1345.72 1929.62,1351 
  1931.74,1356.25 1933.87,1361.47 1936,1366.65 1938.12,1371.79 1940.25,1376.9 1942.38,1381.98 1944.51,1387.01 1946.63,1392.01 1948.76,1396.97 1950.89,1401.9 
  1953.01,1406.79 1955.14,1411.64 1957.27,1416.45 1959.39,1421.23 1961.52,1425.96 1963.65,1430.66 1965.78,1435.32 1967.9,1439.95 1970.03,1444.53 1972.16,1449.08 
  1974.28,1453.58 1976.41,1458.05 1978.54,1462.48 1980.66,1466.86 1982.79,1471.21 1984.92,1475.52 1987.05,1479.79 1989.17,1484.02 1991.3,1488.21 1993.43,1492.36 
  1995.55,1496.47 1997.68,1500.53 1999.81,1504.56 2001.93,1508.55 2004.06,1512.5 2006.19,1516.4 2008.31,1520.27 2010.44,1524.09 2012.57,1527.87 2014.7,1531.61 
  2016.82,1535.31 2018.95,1538.97 2021.08,1542.59 2023.2,1546.17 2025.33,1549.7 2027.46,1553.2 2029.58,1556.65 2031.71,1560.06 2033.84,1563.43 2035.97,1566.76 
  2038.09,1570.05 2040.22,1573.29 2042.35,1576.49 2044.47,1579.66 2046.6,1582.78 2048.73,1585.86 2050.85,1588.89 2052.98,1591.89 2055.11,1594.84 2057.24,1597.76 
  2059.36,1600.63 2061.49,1603.46 2063.62,1606.25 2065.74,1608.99 2067.87,1611.7 2070,1614.36 2072.12,1616.99 2074.25,1619.57 2076.38,1622.11 2078.5,1624.61 
  2080.63,1627.07 2082.76,1629.48 2084.89,1631.86 2087.01,1634.19 2089.14,1636.49 2091.27,1638.74 2093.39,1640.96 2095.52,1643.13 2097.65,1645.26 2099.77,1647.36 
  2101.9,1649.41 2104.03,1651.42 2106.16,1653.39 2108.28,1655.32 2110.41,1657.22 2112.54,1659.07 2114.66,1660.88 2116.79,1662.66 2118.92,1664.39 2121.04,1666.08 
  2123.17,1667.74 2125.3,1669.36 2127.43,1670.93 2129.55,1672.47 2131.68,1673.98 2133.81,1675.44 2135.93,1676.86 2138.06,1678.25 2140.19,1679.6 2142.31,1680.91 
  2144.44,1682.18 2146.57,1683.41 2148.7,1684.61 2150.82,1685.77 2152.95,1686.9 2155.08,1687.98 2157.2,1689.04 2159.33,1690.05 2161.46,1691.03 2163.58,1691.97 
  2165.71,1692.87 2167.84,1693.74 2169.96,1694.58 2172.09,1695.38 2174.22,1696.14 2176.35,1696.87 2178.47,1697.57 2180.6,1698.23 2182.73,1698.85 2184.85,1699.44 
  2186.98,1700 2189.11,1700.52 2191.23,1701.01 2193.36,1701.47 2195.49,1701.89 2197.62,1702.28 2199.74,1702.64 2201.87,1702.97 2204,1703.26 2206.12,1703.52 
  2208.25,1703.75 2210.38,1703.95 2212.5,1704.12 2214.63,1704.25 2216.76,1704.36 2218.89,1704.43 2221.01,1704.47 2223.14,1704.49 2225.27,1704.47 2227.39,1704.42 
  2229.52,1704.35 2231.65,1704.24 2233.77,1704.11 2235.9,1703.94 2238.03,1703.75 2240.16,1703.53 2242.28,1703.28 2244.41,1703.01 2246.54,1702.7 2248.66,1702.37 
  2250.79,1702.02 2252.92,1701.63 2255.04,1701.22 2257.17,1700.78 2259.3,1700.32 2261.42,1699.83 2263.55,1699.31 2265.68,1698.77 2267.81,1698.2 2269.93,1697.61 
  2272.06,1697 2274.19,1696.36 2276.31,1695.69 2278.44,1695.01 2280.57,1694.29 2282.69,1693.56 2284.82,1692.8 2286.95,1692.02 2289.08,1691.22 2291.2,1690.39 
  2293.33,1689.54 2295.46,1688.67 2297.58,1687.78 2299.71,1686.87 2301.84,1685.94 2303.96,1684.98 2306.09,1684.01 2308.22,1683.01 2310.35,1681.99 2312.47,1680.96 
  2314.6,1679.9 2316.73,1678.83 2318.85,1677.74 2320.98,1676.62 2323.11,1675.49 2325.23,1674.34 2327.36,1673.18 2329.49,1671.99 2331.61,1670.79 2333.74,1669.57 
  2335.87,1668.33 2338,1667.08 2340.12,1665.81 2342.25,1664.52 2344.38,1663.22 2346.5,1661.9 2348.63,1660.57 2350.76,1659.22 2352.88,1657.85 2355.01,1656.48 
  2357.14,1655.08 2359.27,1653.67 2361.39,1652.25 2363.52,1650.82 2365.65,1649.37 2367.77,1647.9 2369.9,1646.43 2372.03,1644.94 2374.15,1643.44 2376.28,1641.92 
  2378.41,1640.39 2380.54,1638.86 2382.66,1637.31 2384.79,1635.74 2386.92,1634.17 2389.04,1632.59 2391.17,1630.99 2393.3,1629.39 2395.42,1627.77 2397.55,1626.15 
  2399.68,1624.51 2401.81,1622.87 2403.93,1621.21 2406.06,1619.55 2408.19,1617.87 2410.31,1616.19 2412.44,1614.5 2414.57,1612.8 2416.69,1611.1 2418.82,1609.38 
  2420.95,1607.66 2423.07,1605.93 2425.2,1604.19 2427.33,1602.45 2429.46,1600.7 2431.58,1598.94 2433.71,1597.18 2435.84,1595.41 2437.96,1593.63 2440.09,1591.85 
  2442.22,1590.06 2444.34,1588.26 2446.47,1586.47 2448.6,1584.66 2450.73,1582.85 2452.85,1581.04 2454.98,1579.22 2457.11,1577.4 2459.23,1575.57 2461.36,1573.74 
  2463.49,1571.91 2465.61,1570.07 2467.74,1568.23 2469.87,1566.39 2472,1564.54 2474.12,1562.69 2476.25,1560.84 2478.38,1558.99 2480.5,1557.13 2482.63,1555.27 
  2484.76,1553.41 2486.88,1551.55 2489.01,1549.68 2491.14,1547.81 2493.26,1545.95 2495.39,1544.08 2497.52,1542.21 2499.65,1540.34 2501.77,1538.47 2503.9,1536.6 
  2506.03,1534.73 2508.15,1532.85 2510.28,1530.98 2512.41,1529.11 2514.53,1527.24 2516.66,1525.37 2518.79,1523.5 2520.92,1521.63 2523.04,1519.76 2525.17,1517.89 
  2527.3,1516.03 2529.42,1514.16 2531.55,1512.3 2533.68,1510.43 2535.8,1508.57 2537.93,1506.71 2540.06,1504.86 2542.19,1503 2544.31,1501.15 2546.44,1499.3 
  2548.57,1497.45 2550.69,1495.6 2552.82,1493.76 2554.95,1491.92 2557.07,1490.08 2559.2,1488.25 2561.33,1486.42 2563.46,1484.59 2565.58,1482.77 2567.71,1480.95 
  2569.84,1479.13 2571.96,1477.32 2574.09,1475.51 2576.22,1473.7 2578.34,1471.9 2580.47,1470.1 2582.6,1468.31 2584.72,1466.52 2586.85,1464.73 2588.98,1462.95 
  2591.11,1461.18 2593.23,1459.41 2595.36,1457.64 2597.49,1455.88 2599.61,1454.12 2601.74,1452.37 2603.87,1450.62 2605.99,1448.88 2608.12,1447.15 2610.25,1445.42 
  2612.38,1443.69 2614.5,1441.97 2616.63,1440.26 2618.76,1438.55 2620.88,1436.85 2623.01,1435.15 2625.14,1433.46 2627.26,1431.77 2629.39,1430.09 2631.52,1428.42 
  2633.65,1426.75 2635.77,1425.09 2637.9,1423.44 2640.03,1421.79 2642.15,1420.15 2644.28,1418.51 2646.41,1416.88 2648.53,1415.26 2650.66,1413.64 2652.79,1412.04 
  2654.92,1410.43 2657.04,1408.84 2659.17,1407.25 2661.3,1405.67 2663.42,1404.09 2665.55,1402.52 2667.68,1400.96 2669.8,1399.41 2671.93,1397.86 2674.06,1396.32 
  2676.18,1394.79 
  "/>
<polyline clip-path="url(#clip792)" style="stroke:#389725; stroke-linecap:butt; stroke-linejoin:round; stroke-width:36; stroke-opacity:1; fill:none" points="
  123.815,1208.02 125.942,1208.02 128.069,1208.02 130.196,1208.02 132.323,1208.02 134.45,1208.02 136.577,1208.02 138.704,1208.02 140.831,1208.02 142.958,1208.02 
  145.085,1208.02 147.212,1208.02 149.339,1208.02 151.466,1208.02 153.593,1208.02 155.72,1208.02 157.847,1208.02 159.974,1208.02 162.101,1208.02 164.228,1208.02 
  166.355,1208.02 168.482,1208.02 170.609,1208.02 172.736,1208.02 174.863,1208.02 176.99,1208.02 179.117,1208.02 181.244,1208.02 183.37,1208.02 185.497,1208.02 
  187.624,1208.02 189.751,1208.02 191.878,1208.02 194.005,1208.02 196.132,1208.02 198.259,1208.02 200.386,1208.02 202.513,1208.02 204.64,1208.02 206.767,1208.02 
  208.894,1208.02 211.021,1208.02 213.148,1208.02 215.275,1208.02 217.402,1208.02 219.529,1208.02 221.656,1208.02 223.783,1208.02 225.91,1208.02 228.037,1208.02 
  230.164,1208.02 232.291,1208.02 234.418,1208.02 236.545,1208.02 238.672,1208.02 240.799,1208.02 242.926,1208.02 245.053,1208.02 247.18,1208.02 249.307,1208.02 
  251.434,1208.02 253.561,1208.02 255.688,1208.02 257.815,1208.02 259.942,1208.02 262.069,1208.02 264.196,1208.02 266.322,1208.02 268.449,1208.02 270.576,1208.02 
  272.703,1208.02 274.83,1208.02 276.957,1208.02 279.084,1208.02 281.211,1208.02 283.338,1208.02 285.465,1208.02 287.592,1208.02 289.719,1208.02 291.846,1208.02 
  293.973,1208.02 296.1,1208.02 298.227,1208.02 300.354,1208.02 302.481,1208.02 304.608,1208.02 306.735,1208.02 308.862,1208.02 310.989,1208.02 313.116,1208.02 
  315.243,1208.02 317.37,1208.02 319.497,1208.02 321.624,1208.02 323.751,1208.02 325.878,1208.02 328.005,1208.02 330.132,1208.02 332.259,1208.02 334.386,1208.02 
  336.513,1208.02 338.64,1208.02 340.767,1208.02 342.894,1208.02 345.021,1208.02 347.148,1208.02 349.275,1208.02 351.401,1208.02 353.528,1208.02 355.655,1208.02 
  357.782,1208.02 359.909,1208.02 362.036,1208.02 364.163,1208.02 366.29,1208.02 368.417,1208.02 370.544,1208.02 372.671,1208.02 374.798,1208.02 376.925,1208.02 
  379.052,1208.02 381.179,1208.02 383.306,1208.02 385.433,1208.02 387.56,1208.02 389.687,1208.02 391.814,1208.02 393.941,1208.02 396.068,1208.02 398.195,1208.02 
  400.322,1208.02 402.449,1208.02 404.576,1208.02 406.703,1208.02 408.83,1208.02 410.957,1208.02 413.084,1208.02 415.211,1208.02 417.338,1208.02 419.465,1208.02 
  421.592,1208.02 423.719,1208.02 425.846,1208.02 427.973,1208.02 430.1,1208.02 432.227,1208.02 434.353,1208.02 436.48,1208.02 438.607,1208.02 440.734,1208.02 
  442.861,1208.02 444.988,1208.02 447.115,1208.02 449.242,1208.02 451.369,1208.02 453.496,1208.02 455.623,1208.02 457.75,1208.02 459.877,1208.02 462.004,1208.02 
  464.131,1208.02 466.258,1208.02 468.385,1208.02 470.512,1208.02 472.639,1208.02 474.766,1208.02 476.893,1208.02 479.02,1208.02 481.147,1208.02 483.274,1208.02 
  485.401,1208.02 487.528,1208.02 489.655,1208.02 491.782,1208.02 493.909,1208.02 496.036,1208.02 498.163,1208.02 500.29,1208.02 502.417,1208.02 504.544,1208.02 
  506.671,1208.02 508.798,1208.02 510.925,1208.02 513.052,1208.02 515.179,1208.02 517.306,1208.02 519.432,1208.02 521.559,1208.02 523.686,1208.02 525.813,1208.02 
  527.94,1208.02 530.067,1208.02 532.194,1208.02 534.321,1208.02 536.448,1208.02 538.575,1208.02 540.702,1208.02 542.829,1208.02 544.956,1208.02 547.083,1208.02 
  549.21,1208.02 551.337,1208.02 553.464,1208.02 555.591,1208.02 557.718,1208.02 559.845,1208.02 561.972,1208.02 564.099,1208.02 566.226,1208.02 568.353,1208.02 
  570.48,1208.02 572.607,1208.02 574.734,1208.02 576.861,1208.02 578.988,1208.02 581.115,1208.02 583.242,1208.02 585.369,1208.02 587.496,1208.02 589.623,1208.02 
  591.75,1208.02 593.877,1208.02 596.004,1208.02 598.131,1208.02 600.258,1208.02 602.384,1208.02 604.511,1208.02 606.638,1208.02 608.765,1208.02 610.892,1208.02 
  613.019,1208.02 615.146,1208.02 617.273,1208.02 619.4,1208.02 621.527,1208.02 623.654,1208.02 625.781,1208.02 627.908,1208.02 630.035,1208.02 632.162,1208.02 
  634.289,1208.02 636.416,1208.02 638.543,1208.02 640.67,1208.02 642.797,1208.02 644.924,1208.02 647.051,1208.02 649.178,1208.02 651.305,1208.02 653.432,1208.02 
  655.559,1208.02 657.686,1208.02 659.813,1208.02 661.94,1208.02 664.067,1208.02 666.194,1208.02 668.321,1208.02 670.448,1208.02 672.575,1208.02 674.702,1208.02 
  676.829,1208.02 678.956,1208.02 681.083,1208.02 683.21,1208.02 685.337,1208.02 687.463,1208.02 689.59,1208.02 691.717,1208.02 693.844,1208.02 695.971,1208.02 
  698.098,1208.02 700.225,1208.02 702.352,1208.02 704.479,1208.02 706.606,1208.02 708.733,1208.02 710.86,1208.02 712.987,1208.02 715.114,1208.02 717.241,1208.02 
  719.368,1208.02 721.495,1208.02 723.622,1208.02 725.749,1208.02 727.876,1208.02 730.003,1208.02 732.13,1208.02 734.257,1208.02 736.384,1208.02 738.511,1208.02 
  740.638,1208.02 742.765,1208.02 744.892,1208.02 747.019,1208.02 749.146,1208.02 751.273,1208.02 753.4,1208.02 755.527,1208.02 757.654,1208.02 759.781,1208.02 
  761.908,1208.02 764.035,1208.02 766.162,1208.02 768.289,1208.02 770.415,1208.02 772.542,1208.02 774.669,1208.02 776.796,1208.02 778.923,1208.02 781.05,1208.02 
  783.177,1208.02 785.304,1208.02 787.431,1208.02 789.558,1208.02 791.685,1208.02 793.812,1208.02 795.939,1208.02 798.066,1208.02 800.193,1208.02 802.32,1208.02 
  804.447,1208.02 806.574,1208.02 808.701,1208.02 810.828,1208.02 812.955,1208.02 815.082,1208.02 817.209,1208.02 819.336,1208.02 821.463,1208.02 823.59,1208.02 
  825.717,1208.02 827.844,1208.02 829.971,1208.02 832.098,1208.02 834.225,1208.02 836.352,1208.02 838.479,1208.02 840.606,1208.02 842.733,1208.02 844.86,1208.02 
  846.987,1208.03 849.114,1208.03 851.241,1208.03 853.368,1208.03 855.494,1208.03 857.621,1208.03 859.748,1208.03 861.875,1208.03 864.002,1208.03 866.129,1208.03 
  868.256,1208.04 870.383,1208.04 872.51,1208.04 874.637,1208.04 876.764,1208.04 878.891,1208.05 881.018,1208.05 883.145,1208.05 885.272,1208.06 887.399,1208.06 
  889.526,1208.07 891.653,1208.07 893.78,1208.08 895.907,1208.08 898.034,1208.09 900.161,1208.1 902.288,1208.11 904.415,1208.11 906.542,1208.12 908.669,1208.13 
  910.796,1208.15 912.923,1208.16 915.05,1208.17 917.177,1208.19 919.304,1208.21 921.431,1208.22 923.558,1208.24 925.685,1208.27 927.812,1208.29 929.939,1208.32 
  932.066,1208.35 934.193,1208.38 936.32,1208.41 938.446,1208.45 940.573,1208.49 942.7,1208.53 944.827,1208.58 946.954,1208.63 949.081,1208.69 951.208,1208.75 
  953.335,1208.82 955.462,1208.89 957.589,1208.97 959.716,1209.05 961.843,1209.14 963.97,1209.24 966.097,1209.35 968.224,1209.46 970.351,1209.59 972.478,1209.72 
  974.605,1209.87 976.732,1210.03 978.859,1210.19 980.986,1210.38 983.113,1210.57 985.24,1210.78 987.367,1211.01 989.494,1211.25 991.621,1211.51 993.748,1211.8 
  995.875,1212.1 998.002,1212.42 1000.13,1212.77 1002.26,1213.14 1004.38,1213.53 1006.51,1213.96 1008.64,1214.41 1010.76,1214.89 1012.89,1215.41 1015.02,1215.96 
  1017.14,1216.55 1019.27,1217.18 1021.4,1217.84 1023.53,1218.55 1025.65,1219.31 1027.78,1220.11 1029.91,1220.97 1032.03,1221.87 1034.16,1222.84 1036.29,1223.86 
  1038.41,1224.94 1040.54,1226.08 1042.67,1227.29 1044.8,1228.58 1046.92,1229.93 1049.05,1231.36 1051.18,1232.88 1053.3,1234.47 1055.43,1236.15 1057.56,1237.93 
  1059.68,1239.79 1061.81,1241.76 1063.94,1243.82 1066.06,1245.99 1068.19,1248.27 1070.32,1250.67 1072.45,1253.18 1074.57,1255.81 1076.7,1258.56 1078.83,1261.44 
  1080.95,1264.46 1083.08,1267.61 1085.21,1270.89 1087.33,1274.33 1089.46,1277.91 1091.59,1281.64 1093.72,1285.52 1095.84,1289.56 1097.97,1293.76 1100.1,1298.12 
  1102.22,1302.64 1104.35,1307.34 1106.48,1312.21 1108.6,1317.24 1110.73,1322.45 1112.86,1327.84 1114.99,1333.4 1117.11,1339.15 1119.24,1345.06 1121.37,1351.16 
  1123.49,1357.43 1125.62,1363.89 1127.75,1370.51 1129.87,1377.31 1132,1384.28 1134.13,1391.42 1136.26,1398.72 1138.38,1406.19 1140.51,1413.81 1142.64,1421.58 
  1144.76,1429.5 1146.89,1437.56 1149.02,1445.74 1151.14,1454.05 1153.27,1462.48 1155.4,1471.01 1157.52,1479.63 1159.65,1488.34 1161.78,1497.11 1163.91,1505.95 
  1166.03,1514.83 1168.16,1523.75 1170.29,1532.67 1172.41,1541.6 1174.54,1550.51 1176.67,1559.39 1178.79,1568.21 1180.92,1576.97 1183.05,1585.63 1185.18,1594.17 
  1187.3,1602.58 1189.43,1610.84 1191.56,1618.91 1193.68,1626.78 1195.81,1634.43 1197.94,1641.82 1200.06,1648.94 1202.19,1655.75 1204.32,1662.23 1206.45,1668.36 
  1208.57,1674.1 1210.7,1679.44 1212.83,1684.33 1214.95,1688.77 1217.08,1692.71 1219.21,1696.13 1221.33,1699 1223.46,1701.3 1225.59,1703 1227.72,1704.07 
  1229.84,1704.48 1231.97,1704.22 1234.1,1703.25 1236.22,1701.55 1238.35,1699.1 1240.48,1695.87 1242.6,1691.84 1244.73,1687 1246.86,1681.32 1248.98,1674.78 
  1251.11,1667.38 1253.24,1659.08 1255.37,1649.88 1257.49,1639.77 1259.62,1628.74 1261.75,1616.78 1263.87,1603.87 1266,1590.03 1268.13,1575.24 1270.25,1559.5 
  1272.38,1542.82 1274.51,1525.2 1276.64,1506.64 1278.76,1487.16 1280.89,1466.76 1283.02,1445.47 1285.14,1423.29 1287.27,1400.24 1289.4,1376.35 1291.52,1351.63 
  1293.65,1326.12 1295.78,1299.84 1297.91,1272.82 1300.03,1245.1 1302.16,1216.72 1304.29,1187.7 1306.41,1158.09 1308.54,1127.93 1310.67,1097.27 1312.79,1066.15 
  1314.92,1034.62 1317.05,1002.74 1319.17,970.553 1321.3,938.113 1323.43,905.477 1325.56,872.703 1327.68,839.848 1329.81,806.972 1331.94,774.136 1334.06,741.4 
  1336.19,708.826 1338.32,676.478 1340.44,644.418 1342.57,612.71 1344.7,581.415 1346.83,550.598 1348.95,520.321 1351.08,490.646 1353.21,461.635 1355.33,433.349 
  1357.46,405.846 1359.59,379.186 1361.71,353.426 1363.84,328.621 1365.97,304.824 1368.1,282.089 1370.22,260.465 1372.35,239.999 1374.48,220.737 1376.6,202.722 
  1378.73,185.994 1380.86,170.59 1382.98,156.547 1385.11,143.894 1387.24,132.661 1389.37,122.873 1391.49,114.553 1393.62,107.72 1395.75,102.389 1397.87,98.5721 
  1400,96.2786 1402.13,95.5133 1404.25,96.2785 1406.38,98.5721 1408.51,102.389 1410.63,107.72 1412.76,114.553 1414.89,122.873 1417.02,132.661 1419.14,143.894 
  1421.27,156.547 1423.4,170.59 1425.52,185.994 1427.65,202.722 1429.78,220.737 1431.9,239.999 1434.03,260.465 1436.16,282.089 1438.29,304.824 1440.41,328.621 
  1442.54,353.426 1444.67,379.186 1446.79,405.846 1448.92,433.349 1451.05,461.635 1453.17,490.646 1455.3,520.321 1457.43,550.598 1459.56,581.415 1461.68,612.71 
  1463.81,644.418 1465.94,676.478 1468.06,708.826 1470.19,741.4 1472.32,774.136 1474.44,806.972 1476.57,839.848 1478.7,872.703 1480.83,905.477 1482.95,938.113 
  1485.08,970.553 1487.21,1002.74 1489.33,1034.62 1491.46,1066.15 1493.59,1097.27 1495.71,1127.93 1497.84,1158.09 1499.97,1187.7 1502.09,1216.72 1504.22,1245.1 
  1506.35,1272.83 1508.48,1299.84 1510.6,1326.12 1512.73,1351.63 1514.86,1376.35 1516.98,1400.24 1519.11,1423.29 1521.24,1445.47 1523.36,1466.76 1525.49,1487.16 
  1527.62,1506.64 1529.75,1525.2 1531.87,1542.82 1534,1559.5 1536.13,1575.24 1538.25,1590.03 1540.38,1603.87 1542.51,1616.78 1544.63,1628.74 1546.76,1639.78 
  1548.89,1649.88 1551.02,1659.08 1553.14,1667.38 1555.27,1674.78 1557.4,1681.32 1559.52,1687 1561.65,1691.84 1563.78,1695.87 1565.9,1699.1 1568.03,1701.55 
  1570.16,1703.25 1572.28,1704.22 1574.41,1704.48 1576.54,1704.07 1578.67,1703 1580.79,1701.3 1582.92,1699 1585.05,1696.13 1587.17,1692.71 1589.3,1688.77 
  1591.43,1684.33 1593.55,1679.44 1595.68,1674.1 1597.81,1668.36 1599.94,1662.23 1602.06,1655.75 1604.19,1648.94 1606.32,1641.82 1608.44,1634.43 1610.57,1626.78 
  1612.7,1618.91 1614.82,1610.84 1616.95,1602.58 1619.08,1594.17 1621.21,1585.63 1623.33,1576.97 1625.46,1568.21 1627.59,1559.39 1629.71,1550.51 1631.84,1541.6 
  1633.97,1532.67 1636.09,1523.75 1638.22,1514.83 1640.35,1505.95 1642.48,1497.11 1644.6,1488.34 1646.73,1479.63 1648.86,1471.01 1650.98,1462.48 1653.11,1454.05 
  1655.24,1445.74 1657.36,1437.56 1659.49,1429.5 1661.62,1421.58 1663.74,1413.81 1665.87,1406.19 1668,1398.72 1670.13,1391.42 1672.25,1384.28 1674.38,1377.31 
  1676.51,1370.51 1678.63,1363.89 1680.76,1357.43 1682.89,1351.16 1685.01,1345.06 1687.14,1339.15 1689.27,1333.4 1691.4,1327.84 1693.52,1322.45 1695.65,1317.24 
  1697.78,1312.21 1699.9,1307.34 1702.03,1302.64 1704.16,1298.12 1706.28,1293.76 1708.41,1289.56 1710.54,1285.52 1712.67,1281.64 1714.79,1277.91 1716.92,1274.33 
  1719.05,1270.89 1721.17,1267.61 1723.3,1264.46 1725.43,1261.44 1727.55,1258.56 1729.68,1255.81 1731.81,1253.18 1733.94,1250.67 1736.06,1248.27 1738.19,1245.99 
  1740.32,1243.82 1742.44,1241.76 1744.57,1239.79 1746.7,1237.93 1748.82,1236.15 1750.95,1234.47 1753.08,1232.88 1755.2,1231.36 1757.33,1229.93 1759.46,1228.58 
  1761.59,1227.29 1763.71,1226.08 1765.84,1224.94 1767.97,1223.86 1770.09,1222.84 1772.22,1221.87 1774.35,1220.97 1776.47,1220.11 1778.6,1219.31 1780.73,1218.55 
  1782.86,1217.84 1784.98,1217.18 1787.11,1216.55 1789.24,1215.96 1791.36,1215.41 1793.49,1214.89 1795.62,1214.41 1797.74,1213.96 1799.87,1213.53 1802,1213.14 
  1804.13,1212.77 1806.25,1212.42 1808.38,1212.1 1810.51,1211.8 1812.63,1211.51 1814.76,1211.25 1816.89,1211.01 1819.01,1210.78 1821.14,1210.57 1823.27,1210.38 
  1825.39,1210.19 1827.52,1210.03 1829.65,1209.87 1831.78,1209.72 1833.9,1209.59 1836.03,1209.46 1838.16,1209.35 1840.28,1209.24 1842.41,1209.14 1844.54,1209.05 
  1846.66,1208.97 1848.79,1208.89 1850.92,1208.82 1853.05,1208.75 1855.17,1208.69 1857.3,1208.63 1859.43,1208.58 1861.55,1208.53 1863.68,1208.49 1865.81,1208.45 
  1867.93,1208.41 1870.06,1208.38 1872.19,1208.35 1874.32,1208.32 1876.44,1208.29 1878.57,1208.27 1880.7,1208.24 1882.82,1208.22 1884.95,1208.21 1887.08,1208.19 
  1889.2,1208.17 1891.33,1208.16 1893.46,1208.15 1895.59,1208.13 1897.71,1208.12 1899.84,1208.11 1901.97,1208.11 1904.09,1208.1 1906.22,1208.09 1908.35,1208.08 
  1910.47,1208.08 1912.6,1208.07 1914.73,1208.07 1916.85,1208.06 1918.98,1208.06 1921.11,1208.05 1923.24,1208.05 1925.36,1208.05 1927.49,1208.04 1929.62,1208.04 
  1931.74,1208.04 1933.87,1208.04 1936,1208.04 1938.12,1208.03 1940.25,1208.03 1942.38,1208.03 1944.51,1208.03 1946.63,1208.03 1948.76,1208.03 1950.89,1208.03 
  1953.01,1208.03 1955.14,1208.03 1957.27,1208.02 1959.39,1208.02 1961.52,1208.02 1963.65,1208.02 1965.78,1208.02 1967.9,1208.02 1970.03,1208.02 1972.16,1208.02 
  1974.28,1208.02 1976.41,1208.02 1978.54,1208.02 1980.66,1208.02 1982.79,1208.02 1984.92,1208.02 1987.05,1208.02 1989.17,1208.02 1991.3,1208.02 1993.43,1208.02 
  1995.55,1208.02 1997.68,1208.02 1999.81,1208.02 2001.93,1208.02 2004.06,1208.02 2006.19,1208.02 2008.31,1208.02 2010.44,1208.02 2012.57,1208.02 2014.7,1208.02 
  2016.82,1208.02 2018.95,1208.02 2021.08,1208.02 2023.2,1208.02 2025.33,1208.02 2027.46,1208.02 2029.58,1208.02 2031.71,1208.02 2033.84,1208.02 2035.97,1208.02 
  2038.09,1208.02 2040.22,1208.02 2042.35,1208.02 2044.47,1208.02 2046.6,1208.02 2048.73,1208.02 2050.85,1208.02 2052.98,1208.02 2055.11,1208.02 2057.24,1208.02 
  2059.36,1208.02 2061.49,1208.02 2063.62,1208.02 2065.74,1208.02 2067.87,1208.02 2070,1208.02 2072.12,1208.02 2074.25,1208.02 2076.38,1208.02 2078.5,1208.02 
  2080.63,1208.02 2082.76,1208.02 2084.89,1208.02 2087.01,1208.02 2089.14,1208.02 2091.27,1208.02 2093.39,1208.02 2095.52,1208.02 2097.65,1208.02 2099.77,1208.02 
  2101.9,1208.02 2104.03,1208.02 2106.16,1208.02 2108.28,1208.02 2110.41,1208.02 2112.54,1208.02 2114.66,1208.02 2116.79,1208.02 2118.92,1208.02 2121.04,1208.02 
  2123.17,1208.02 2125.3,1208.02 2127.43,1208.02 2129.55,1208.02 2131.68,1208.02 2133.81,1208.02 2135.93,1208.02 2138.06,1208.02 2140.19,1208.02 2142.31,1208.02 
  2144.44,1208.02 2146.57,1208.02 2148.7,1208.02 2150.82,1208.02 2152.95,1208.02 2155.08,1208.02 2157.2,1208.02 2159.33,1208.02 2161.46,1208.02 2163.58,1208.02 
  2165.71,1208.02 2167.84,1208.02 2169.96,1208.02 2172.09,1208.02 2174.22,1208.02 2176.35,1208.02 2178.47,1208.02 2180.6,1208.02 2182.73,1208.02 2184.85,1208.02 
  2186.98,1208.02 2189.11,1208.02 2191.23,1208.02 2193.36,1208.02 2195.49,1208.02 2197.62,1208.02 2199.74,1208.02 2201.87,1208.02 2204,1208.02 2206.12,1208.02 
  2208.25,1208.02 2210.38,1208.02 2212.5,1208.02 2214.63,1208.02 2216.76,1208.02 2218.89,1208.02 2221.01,1208.02 2223.14,1208.02 2225.27,1208.02 2227.39,1208.02 
  2229.52,1208.02 2231.65,1208.02 2233.77,1208.02 2235.9,1208.02 2238.03,1208.02 2240.16,1208.02 2242.28,1208.02 2244.41,1208.02 2246.54,1208.02 2248.66,1208.02 
  2250.79,1208.02 2252.92,1208.02 2255.04,1208.02 2257.17,1208.02 2259.3,1208.02 2261.42,1208.02 2263.55,1208.02 2265.68,1208.02 2267.81,1208.02 2269.93,1208.02 
  2272.06,1208.02 2274.19,1208.02 2276.31,1208.02 2278.44,1208.02 2280.57,1208.02 2282.69,1208.02 2284.82,1208.02 2286.95,1208.02 2289.08,1208.02 2291.2,1208.02 
  2293.33,1208.02 2295.46,1208.02 2297.58,1208.02 2299.71,1208.02 2301.84,1208.02 2303.96,1208.02 2306.09,1208.02 2308.22,1208.02 2310.35,1208.02 2312.47,1208.02 
  2314.6,1208.02 2316.73,1208.02 2318.85,1208.02 2320.98,1208.02 2323.11,1208.02 2325.23,1208.02 2327.36,1208.02 2329.49,1208.02 2331.61,1208.02 2333.74,1208.02 
  2335.87,1208.02 2338,1208.02 2340.12,1208.02 2342.25,1208.02 2344.38,1208.02 2346.5,1208.02 2348.63,1208.02 2350.76,1208.02 2352.88,1208.02 2355.01,1208.02 
  2357.14,1208.02 2359.27,1208.02 2361.39,1208.02 2363.52,1208.02 2365.65,1208.02 2367.77,1208.02 2369.9,1208.02 2372.03,1208.02 2374.15,1208.02 2376.28,1208.02 
  2378.41,1208.02 2380.54,1208.02 2382.66,1208.02 2384.79,1208.02 2386.92,1208.02 2389.04,1208.02 2391.17,1208.02 2393.3,1208.02 2395.42,1208.02 2397.55,1208.02 
  2399.68,1208.02 2401.81,1208.02 2403.93,1208.02 2406.06,1208.02 2408.19,1208.02 2410.31,1208.02 2412.44,1208.02 2414.57,1208.02 2416.69,1208.02 2418.82,1208.02 
  2420.95,1208.02 2423.07,1208.02 2425.2,1208.02 2427.33,1208.02 2429.46,1208.02 2431.58,1208.02 2433.71,1208.02 2435.84,1208.02 2437.96,1208.02 2440.09,1208.02 
  2442.22,1208.02 2444.34,1208.02 2446.47,1208.02 2448.6,1208.02 2450.73,1208.02 2452.85,1208.02 2454.98,1208.02 2457.11,1208.02 2459.23,1208.02 2461.36,1208.02 
  2463.49,1208.02 2465.61,1208.02 2467.74,1208.02 2469.87,1208.02 2472,1208.02 2474.12,1208.02 2476.25,1208.02 2478.38,1208.02 2480.5,1208.02 2482.63,1208.02 
  2484.76,1208.02 2486.88,1208.02 2489.01,1208.02 2491.14,1208.02 2493.26,1208.02 2495.39,1208.02 2497.52,1208.02 2499.65,1208.02 2501.77,1208.02 2503.9,1208.02 
  2506.03,1208.02 2508.15,1208.02 2510.28,1208.02 2512.41,1208.02 2514.53,1208.02 2516.66,1208.02 2518.79,1208.02 2520.92,1208.02 2523.04,1208.02 2525.17,1208.02 
  2527.3,1208.02 2529.42,1208.02 2531.55,1208.02 2533.68,1208.02 2535.8,1208.02 2537.93,1208.02 2540.06,1208.02 2542.19,1208.02 2544.31,1208.02 2546.44,1208.02 
  2548.57,1208.02 2550.69,1208.02 2552.82,1208.02 2554.95,1208.02 2557.07,1208.02 2559.2,1208.02 2561.33,1208.02 2563.46,1208.02 2565.58,1208.02 2567.71,1208.02 
  2569.84,1208.02 2571.96,1208.02 2574.09,1208.02 2576.22,1208.02 2578.34,1208.02 2580.47,1208.02 2582.6,1208.02 2584.72,1208.02 2586.85,1208.02 2588.98,1208.02 
  2591.11,1208.02 2593.23,1208.02 2595.36,1208.02 2597.49,1208.02 2599.61,1208.02 2601.74,1208.02 2603.87,1208.02 2605.99,1208.02 2608.12,1208.02 2610.25,1208.02 
  2612.38,1208.02 2614.5,1208.02 2616.63,1208.02 2618.76,1208.02 2620.88,1208.02 2623.01,1208.02 2625.14,1208.02 2627.26,1208.02 2629.39,1208.02 2631.52,1208.02 
  2633.65,1208.02 2635.77,1208.02 2637.9,1208.02 2640.03,1208.02 2642.15,1208.02 2644.28,1208.02 2646.41,1208.02 2648.53,1208.02 2650.66,1208.02 2652.79,1208.02 
  2654.92,1208.02 2657.04,1208.02 2659.17,1208.02 2661.3,1208.02 2663.42,1208.02 2665.55,1208.02 2667.68,1208.02 2669.8,1208.02 2671.93,1208.02 2674.06,1208.02 
  2676.18,1208.02 
  "/>
<polyline clip-path="url(#clip792)" style="stroke:#ca3b33; stroke-linecap:butt; stroke-linejoin:round; stroke-width:36; stroke-opacity:1; fill:none" points="
  123.815,1050.37 125.942,1049.57 128.069,1048.77 130.196,1047.96 132.323,1047.15 134.45,1046.34 136.577,1045.52 138.704,1044.7 140.831,1043.87 142.958,1043.04 
  145.085,1042.2 147.212,1041.36 149.339,1040.51 151.466,1039.66 153.593,1038.81 155.72,1037.95 157.847,1037.09 159.974,1036.22 162.101,1035.35 164.228,1034.47 
  166.355,1033.59 168.482,1032.71 170.609,1031.81 172.736,1030.92 174.863,1030.02 176.99,1029.12 179.117,1028.21 181.244,1027.29 183.37,1026.38 185.497,1025.45 
  187.624,1024.52 189.751,1023.59 191.878,1022.65 194.005,1021.71 196.132,1020.77 198.259,1019.81 200.386,1018.86 202.513,1017.9 204.64,1016.93 206.767,1015.96 
  208.894,1014.98 211.021,1014 213.148,1013.02 215.275,1012.03 217.402,1011.03 219.529,1010.03 221.656,1009.02 223.783,1008.01 225.91,1007 228.037,1005.98 
  230.164,1004.95 232.291,1003.92 234.418,1002.89 236.545,1001.85 238.672,1000.8 240.799,999.749 242.926,998.693 245.053,997.632 247.18,996.566 249.307,995.494 
  251.434,994.418 253.561,993.336 255.688,992.249 257.815,991.156 259.942,990.059 262.069,988.956 264.196,987.848 266.322,986.735 268.449,985.616 270.576,984.492 
  272.703,983.363 274.83,982.228 276.957,981.089 279.084,979.943 281.211,978.793 283.338,977.637 285.465,976.475 287.592,975.308 289.719,974.136 291.846,972.959 
  293.973,971.776 296.1,970.587 298.227,969.393 300.354,968.193 302.481,966.989 304.608,965.778 306.735,964.562 308.862,963.341 310.989,962.114 313.116,960.881 
  315.243,959.643 317.37,958.399 319.497,957.15 321.624,955.895 323.751,954.635 325.878,953.369 328.005,952.097 330.132,950.82 332.259,949.537 334.386,948.248 
  336.513,946.954 338.64,945.654 340.767,944.348 342.894,943.037 345.021,941.72 347.148,940.398 349.275,939.069 351.401,937.735 353.528,936.396 355.655,935.05 
  357.782,933.699 359.909,932.342 362.036,930.979 364.163,929.61 366.29,928.236 368.417,926.856 370.544,925.47 372.671,924.079 374.798,922.681 376.925,921.278 
  379.052,919.869 381.179,918.455 383.306,917.034 385.433,915.607 387.56,914.175 389.687,912.737 391.814,911.293 393.941,909.843 396.068,908.388 398.195,906.926 
  400.322,905.459 402.449,903.986 404.576,902.507 406.703,901.022 408.83,899.531 410.957,898.035 413.084,896.532 415.211,895.024 417.338,893.51 419.465,891.99 
  421.592,890.464 423.719,888.932 425.846,887.395 427.973,885.851 430.1,884.301 432.227,882.746 434.353,881.185 436.48,879.618 438.607,878.045 440.734,876.466 
  442.861,874.881 444.988,873.291 447.115,871.694 449.242,870.092 451.369,868.484 453.496,866.87 455.623,865.25 457.75,863.624 459.877,861.992 462.004,860.355 
  464.131,858.712 466.258,857.062 468.385,855.407 470.512,853.746 472.639,852.08 474.766,850.407 476.893,848.729 479.02,847.045 481.147,845.355 483.274,843.659 
  485.401,841.957 487.528,840.25 489.655,838.537 491.782,836.818 493.909,835.093 496.036,833.362 498.163,831.626 500.29,829.884 502.417,828.136 504.544,826.383 
  506.671,824.624 508.798,822.859 510.925,821.088 513.052,819.312 515.179,817.53 517.306,815.742 519.432,813.949 521.559,812.15 523.686,810.345 525.813,808.535 
  527.94,806.719 530.067,804.898 532.194,803.071 534.321,801.238 536.448,799.4 538.575,797.556 540.702,795.707 542.829,793.852 544.956,791.992 547.083,790.126 
  549.21,788.255 551.337,786.378 553.464,784.496 555.591,782.608 557.718,780.715 559.845,778.817 561.972,776.913 564.099,775.004 566.226,773.09 568.353,771.17 
  570.48,769.245 572.607,767.315 574.734,765.379 576.861,763.438 578.988,761.492 581.115,759.541 583.242,757.585 585.369,755.623 587.496,753.657 589.623,751.685 
  591.75,749.708 593.877,747.726 596.004,745.739 598.131,743.747 600.258,741.75 602.384,739.748 604.511,737.741 606.638,735.729 608.765,733.712 610.892,731.691 
  613.019,729.664 615.146,727.633 617.273,725.597 619.4,723.556 621.527,721.511 623.654,719.46 625.781,717.405 627.908,715.346 630.035,713.282 632.162,711.213 
  634.289,709.139 636.416,707.061 638.543,704.979 640.67,702.892 642.797,700.801 644.924,698.705 647.051,696.605 649.178,694.5 651.305,692.392 653.432,690.279 
  655.559,688.161 657.686,686.04 659.813,683.914 661.94,681.784 664.067,679.65 666.194,677.512 668.321,675.37 670.448,673.224 672.575,671.074 674.702,668.92 
  676.829,666.762 678.956,664.6 681.083,662.435 683.21,660.266 685.337,658.092 687.463,655.916 689.59,653.735 691.717,651.551 693.844,649.364 695.971,647.172 
  698.098,644.978 700.225,642.78 702.352,640.578 704.479,638.373 706.606,636.165 708.733,633.953 710.86,631.739 712.987,629.521 715.114,627.3 717.241,625.075 
  719.368,622.848 721.495,620.617 723.622,618.384 725.749,616.148 727.876,613.909 730.003,611.667 732.13,609.422 734.257,607.174 736.384,604.924 738.511,602.671 
  740.638,600.416 742.765,598.158 744.892,595.897 747.019,593.634 749.146,591.368 751.273,589.101 753.4,586.83 755.527,584.558 757.654,582.284 759.781,580.007 
  761.908,577.728 764.035,575.447 766.162,573.164 768.289,570.879 770.415,568.592 772.542,566.304 774.669,564.013 776.796,561.721 778.923,559.427 781.05,557.132 
  783.177,554.835 785.304,552.537 787.431,550.236 789.558,547.935 791.685,545.633 793.812,543.328 795.939,541.023 798.066,538.717 800.193,536.409 802.32,534.101 
  804.447,531.791 806.574,529.48 808.701,527.169 810.828,524.857 812.955,522.544 815.082,520.23 817.209,517.916 819.336,515.601 821.463,513.285 823.59,510.969 
  825.717,508.653 827.844,506.336 829.971,504.02 832.098,501.702 834.225,499.385 836.352,497.068 838.479,494.75 840.606,492.433 842.733,490.116 844.86,487.799 
  846.987,485.482 849.114,483.165 851.241,480.849 853.368,478.533 855.494,476.218 857.621,473.903 859.748,471.589 861.875,469.275 864.002,466.963 866.129,464.651 
  868.256,462.34 870.383,460.03 872.51,457.721 874.637,455.413 876.764,453.106 878.891,450.8 881.018,448.496 883.145,446.193 885.272,443.892 887.399,441.591 
  889.526,439.293 891.653,436.996 893.78,434.701 895.907,432.408 898.034,430.116 900.161,427.827 902.288,425.539 904.415,423.254 906.542,420.97 908.669,418.689 
  910.796,416.41 912.923,414.134 915.05,411.859 917.177,409.588 919.304,407.318 921.431,405.052 923.558,402.788 925.685,400.527 927.812,398.268 929.939,396.013 
  932.066,393.761 934.193,391.511 936.32,389.265 938.446,387.022 940.573,384.783 942.7,382.546 944.827,380.313 946.954,378.084 949.081,375.858 951.208,373.636 
  953.335,371.417 955.462,369.202 957.589,366.992 959.716,364.784 961.843,362.582 963.97,360.383 966.097,358.188 968.224,355.998 970.351,353.812 972.478,351.63 
  974.605,349.452 976.732,347.28 978.859,345.111 980.986,342.948 983.113,340.789 985.24,338.635 987.367,336.486 989.494,334.342 991.621,332.203 993.748,330.069 
  995.875,327.941 998.002,325.817 1000.13,323.699 1002.26,321.587 1004.38,319.48 1006.51,317.378 1008.64,315.282 1010.76,313.192 1012.89,311.107 1015.02,309.029 
  1017.14,306.956 1019.27,304.89 1021.4,302.829 1023.53,300.775 1025.65,298.727 1027.78,296.685 1029.91,294.65 1032.03,292.621 1034.16,290.599 1036.29,288.584 
  1038.41,286.575 1040.54,284.572 1042.67,282.577 1044.8,280.589 1046.92,278.607 1049.05,276.633 1051.18,274.666 1053.3,272.705 1055.43,270.753 1057.56,268.807 
  1059.68,266.869 1061.81,264.939 1063.94,263.016 1066.06,261.101 1068.19,259.193 1070.32,257.293 1072.45,255.401 1074.57,253.518 1076.7,251.642 1078.83,249.774 
  1080.95,247.914 1083.08,246.063 1085.21,244.219 1087.33,242.385 1089.46,240.558 1091.59,238.74 1093.72,236.931 1095.84,235.13 1097.97,233.338 1100.1,231.555 
  1102.22,229.781 1104.35,228.016 1106.48,226.259 1108.6,224.512 1110.73,222.773 1112.86,221.045 1114.99,219.325 1117.11,217.615 1119.24,215.914 1121.37,214.222 
  1123.49,212.54 1125.62,210.868 1127.75,209.205 1129.87,207.552 1132,205.909 1134.13,204.276 1136.26,202.652 1138.38,201.039 1140.51,199.436 1142.64,197.843 
  1144.76,196.26 1146.89,194.687 1149.02,193.125 1151.14,191.573 1153.27,190.031 1155.4,188.5 1157.52,186.98 1159.65,185.47 1161.78,183.971 1163.91,182.482 
  1166.03,181.005 1168.16,179.538 1170.29,178.082 1172.41,176.638 1174.54,175.204 1176.67,173.782 1178.79,172.37 1180.92,170.97 1183.05,169.581 1185.18,168.204 
  1187.3,166.838 1189.43,165.483 1191.56,164.14 1193.68,162.808 1195.81,161.488 1197.94,160.18 1200.06,158.884 1202.19,157.599 1204.32,156.326 1206.45,155.065 
  1208.57,153.816 1210.7,152.58 1212.83,151.355 1214.95,150.142 1217.08,148.941 1219.21,147.753 1221.33,146.577 1223.46,145.413 1225.59,144.261 1227.72,143.122 
  1229.84,141.995 1231.97,140.882 1234.1,139.78 1236.22,138.691 1238.35,137.614 1240.48,136.551 1242.6,135.5 1244.73,134.462 1246.86,133.437 1248.98,132.424 
  1251.11,131.425 1253.24,130.438 1255.37,129.465 1257.49,128.504 1259.62,127.557 1261.75,126.622 1263.87,125.701 1266,124.793 1268.13,123.899 1270.25,123.017 
  1272.38,122.149 1274.51,121.294 1276.64,120.453 1278.76,119.625 1280.89,118.81 1283.02,118.009 1285.14,117.222 1287.27,116.448 1289.4,115.688 1291.52,114.941 
  1293.65,114.208 1295.78,113.489 1297.91,112.783 1300.03,112.091 1302.16,111.413 1304.29,110.749 1306.41,110.099 1308.54,109.462 1310.67,108.84 1312.79,108.231 
  1314.92,107.636 1317.05,107.055 1319.17,106.489 1321.3,105.936 1323.43,105.397 1325.56,104.873 1327.68,104.362 1329.81,103.866 1331.94,103.384 1334.06,102.916 
  1336.19,102.462 1338.32,102.022 1340.44,101.597 1342.57,101.186 1344.7,100.789 1346.83,100.406 1348.95,100.038 1351.08,99.684 1353.21,99.3445 1355.33,99.0191 
  1357.46,98.7081 1359.59,98.4114 1361.71,98.1293 1363.84,97.8615 1365.97,97.6081 1368.1,97.3689 1370.22,97.1446 1372.35,96.9345 1374.48,96.7387 1376.6,96.5575 
  1378.73,96.3909 1380.86,96.2387 1382.98,96.1009 1385.11,95.9775 1387.24,95.8687 1389.37,95.7745 1391.49,95.6946 1393.62,95.6293 1395.75,95.5785 1397.87,95.5422 
  1400,95.5205 1402.13,95.5133 1404.25,95.5205 1406.38,95.5422 1408.51,95.5785 1410.63,95.6293 1412.76,95.6947 1414.89,95.7744 1417.02,95.8689 1419.14,95.9775 
  1421.27,96.1009 1423.4,96.2387 1425.52,96.3909 1427.65,96.5575 1429.78,96.7388 1431.9,96.9345 1434.03,97.1446 1436.16,97.3689 1438.29,97.6081 1440.41,97.8615 
  1442.54,98.1293 1444.67,98.4114 1446.79,98.7081 1448.92,99.0191 1451.05,99.3445 1453.17,99.684 1455.3,100.038 1457.43,100.406 1459.56,100.789 1461.68,101.186 
  1463.81,101.597 1465.94,102.022 1468.06,102.462 1470.19,102.916 1472.32,103.384 1474.44,103.866 1476.57,104.362 1478.7,104.873 1480.83,105.397 1482.95,105.936 
  1485.08,106.489 1487.21,107.055 1489.33,107.636 1491.46,108.231 1493.59,108.839 1495.71,109.462 1497.84,110.099 1499.97,110.749 1502.09,111.413 1504.22,112.091 
  1506.35,112.783 1508.48,113.489 1510.6,114.208 1512.73,114.941 1514.86,115.688 1516.98,116.448 1519.11,117.222 1521.24,118.009 1523.36,118.81 1525.49,119.625 
  1527.62,120.453 1529.75,121.294 1531.87,122.149 1534,123.017 1536.13,123.898 1538.25,124.793 1540.38,125.701 1542.51,126.622 1544.63,127.557 1546.76,128.504 
  1548.89,129.465 1551.02,130.438 1553.14,131.425 1555.27,132.424 1557.4,133.436 1559.52,134.462 1561.65,135.5 1563.78,136.551 1565.9,137.614 1568.03,138.691 
  1570.16,139.78 1572.28,140.882 1574.41,141.995 1576.54,143.122 1578.67,144.261 1580.79,145.413 1582.92,146.577 1585.05,147.753 1587.17,148.941 1589.3,150.142 
  1591.43,151.355 1593.55,152.58 1595.68,153.816 1597.81,155.065 1599.94,156.326 1602.06,157.599 1604.19,158.884 1606.32,160.18 1608.44,161.488 1610.57,162.808 
  1612.7,164.14 1614.82,165.483 1616.95,166.838 1619.08,168.204 1621.21,169.581 1623.33,170.97 1625.46,172.37 1627.59,173.781 1629.71,175.204 1631.84,176.638 
  1633.97,178.082 1636.09,179.538 1638.22,181.005 1640.35,182.482 1642.48,183.971 1644.6,185.47 1646.73,186.98 1648.86,188.5 1650.98,190.031 1653.11,191.573 
  1655.24,193.125 1657.36,194.687 1659.49,196.26 1661.62,197.843 1663.74,199.436 1665.87,201.039 1668,202.652 1670.13,204.276 1672.25,205.909 1674.38,207.552 
  1676.51,209.205 1678.63,210.868 1680.76,212.54 1682.89,214.222 1685.01,215.913 1687.14,217.614 1689.27,219.325 1691.4,221.045 1693.52,222.774 1695.65,224.512 
  1697.78,226.259 1699.9,228.015 1702.03,229.781 1704.16,231.555 1706.28,233.338 1708.41,235.13 1710.54,236.931 1712.67,238.74 1714.79,240.558 1716.92,242.385 
  1719.05,244.219 1721.17,246.062 1723.3,247.914 1725.43,249.774 1727.55,251.642 1729.68,253.518 1731.81,255.401 1733.94,257.293 1736.06,259.193 1738.19,261.101 
  1740.32,263.016 1742.44,264.939 1744.57,266.869 1746.7,268.807 1748.82,270.753 1750.95,272.705 1753.08,274.665 1755.2,276.633 1757.33,278.607 1759.46,280.589 
  1761.59,282.577 1763.71,284.572 1765.84,286.574 1767.97,288.584 1770.09,290.599 1772.22,292.621 1774.35,294.65 1776.47,296.685 1778.6,298.727 1780.73,300.775 
  1782.86,302.829 1784.98,304.89 1787.11,306.956 1789.24,309.029 1791.36,311.108 1793.49,313.192 1795.62,315.282 1797.74,317.378 1799.87,319.479 1802,321.587 
  1804.13,323.699 1806.25,325.817 1808.38,327.941 1810.51,330.069 1812.63,332.203 1814.76,334.342 1816.89,336.486 1819.01,338.635 1821.14,340.789 1823.27,342.948 
  1825.39,345.111 1827.52,347.279 1829.65,349.452 1831.78,351.63 1833.9,353.811 1836.03,355.998 1838.16,358.188 1840.28,360.383 1842.41,362.582 1844.54,364.785 
  1846.66,366.991 1848.79,369.202 1850.92,371.417 1853.05,373.636 1855.17,375.858 1857.3,378.084 1859.43,380.313 1861.55,382.546 1863.68,384.783 1865.81,387.022 
  1867.93,389.265 1870.06,391.511 1872.19,393.761 1874.32,396.013 1876.44,398.269 1878.57,400.527 1880.7,402.788 1882.82,405.052 1884.95,407.318 1887.08,409.588 
  1889.2,411.859 1891.33,414.134 1893.46,416.41 1895.59,418.689 1897.71,420.97 1899.84,423.254 1901.97,425.539 1904.09,427.827 1906.22,430.116 1908.35,432.408 
  1910.47,434.701 1912.6,436.996 1914.73,439.293 1916.85,441.591 1918.98,443.892 1921.11,446.193 1923.24,448.496 1925.36,450.8 1927.49,453.106 1929.62,455.413 
  1931.74,457.721 1933.87,460.03 1936,462.34 1938.12,464.651 1940.25,466.963 1942.38,469.275 1944.51,471.589 1946.63,473.903 1948.76,476.218 1950.89,478.533 
  1953.01,480.849 1955.14,483.165 1957.27,485.482 1959.39,487.799 1961.52,490.116 1963.65,492.433 1965.78,494.75 1967.9,497.068 1970.03,499.385 1972.16,501.702 
  1974.28,504.02 1976.41,506.337 1978.54,508.653 1980.66,510.969 1982.79,513.285 1984.92,515.601 1987.05,517.916 1989.17,520.23 1991.3,522.544 1993.43,524.857 
  1995.55,527.169 1997.68,529.481 1999.81,531.791 2001.93,534.101 2004.06,536.409 2006.19,538.717 2008.31,541.023 2010.44,543.328 2012.57,545.632 2014.7,547.935 
  2016.82,550.236 2018.95,552.537 2021.08,554.835 2023.2,557.132 2025.33,559.427 2027.46,561.721 2029.58,564.013 2031.71,566.304 2033.84,568.592 2035.97,570.879 
  2038.09,573.164 2040.22,575.447 2042.35,577.728 2044.47,580.007 2046.6,582.283 2048.73,584.558 2050.85,586.83 2052.98,589.101 2055.11,591.368 2057.24,593.634 
  2059.36,595.897 2061.49,598.158 2063.62,600.416 2065.74,602.671 2067.87,604.924 2070,607.174 2072.12,609.422 2074.25,611.667 2076.38,613.909 2078.5,616.148 
  2080.63,618.384 2082.76,620.618 2084.89,622.848 2087.01,625.075 2089.14,627.3 2091.27,629.521 2093.39,631.739 2095.52,633.953 2097.65,636.165 2099.77,638.373 
  2101.9,640.578 2104.03,642.78 2106.16,644.978 2108.28,647.173 2110.41,649.364 2112.54,651.551 2114.66,653.735 2116.79,655.916 2118.92,658.092 2121.04,660.266 
  2123.17,662.435 2125.3,664.6 2127.43,666.762 2129.55,668.92 2131.68,671.074 2133.81,673.224 2135.93,675.37 2138.06,677.512 2140.19,679.65 2142.31,681.784 
  2144.44,683.914 2146.57,686.04 2148.7,688.161 2150.82,690.278 2152.95,692.392 2155.08,694.5 2157.2,696.605 2159.33,698.705 2161.46,700.801 2163.58,702.892 
  2165.71,704.979 2167.84,707.061 2169.96,709.139 2172.09,711.213 2174.22,713.281 2176.35,715.346 2178.47,717.405 2180.6,719.46 2182.73,721.511 2184.85,723.556 
  2186.98,725.597 2189.11,727.633 2191.23,729.664 2193.36,731.691 2195.49,733.712 2197.62,735.729 2199.74,737.741 2201.87,739.748 2204,741.75 2206.12,743.747 
  2208.25,745.739 2210.38,747.726 2212.5,749.708 2214.63,751.685 2216.76,753.657 2218.89,755.623 2221.01,757.585 2223.14,759.541 2225.27,761.492 2227.39,763.438 
  2229.52,765.379 2231.65,767.315 2233.77,769.245 2235.9,771.17 2238.03,773.09 2240.16,775.004 2242.28,776.913 2244.41,778.817 2246.54,780.715 2248.66,782.608 
  2250.79,784.496 2252.92,786.378 2255.04,788.255 2257.17,790.126 2259.3,791.992 2261.42,793.852 2263.55,795.707 2265.68,797.556 2267.81,799.4 2269.93,801.238 
  2272.06,803.071 2274.19,804.898 2276.31,806.719 2278.44,808.535 2280.57,810.345 2282.69,812.15 2284.82,813.949 2286.95,815.742 2289.08,817.53 2291.2,819.312 
  2293.33,821.088 2295.46,822.859 2297.58,824.624 2299.71,826.383 2301.84,828.136 2303.96,829.884 2306.09,831.626 2308.22,833.362 2310.35,835.093 2312.47,836.818 
  2314.6,838.537 2316.73,840.25 2318.85,841.957 2320.98,843.659 2323.11,845.355 2325.23,847.045 2327.36,848.729 2329.49,850.407 2331.61,852.08 2333.74,853.747 
  2335.87,855.407 2338,857.062 2340.12,858.712 2342.25,860.355 2344.38,861.992 2346.5,863.624 2348.63,865.25 2350.76,866.87 2352.88,868.484 2355.01,870.092 
  2357.14,871.694 2359.27,873.291 2361.39,874.881 2363.52,876.466 2365.65,878.045 2367.77,879.618 2369.9,881.185 2372.03,882.746 2374.15,884.301 2376.28,885.851 
  2378.41,887.395 2380.54,888.932 2382.66,890.464 2384.79,891.99 2386.92,893.51 2389.04,895.024 2391.17,896.532 2393.3,898.035 2395.42,899.531 2397.55,901.022 
  2399.68,902.507 2401.81,903.986 2403.93,905.459 2406.06,906.926 2408.19,908.388 2410.31,909.843 2412.44,911.293 2414.57,912.737 2416.69,914.175 2418.82,915.608 
  2420.95,917.034 2423.07,918.455 2425.2,919.869 2427.33,921.278 2429.46,922.681 2431.58,924.079 2433.71,925.47 2435.84,926.856 2437.96,928.236 2440.09,929.611 
  2442.22,930.979 2444.34,932.342 2446.47,933.699 2448.6,935.05 2450.73,936.396 2452.85,937.735 2454.98,939.069 2457.11,940.398 2459.23,941.72 2461.36,943.037 
  2463.49,944.348 2465.61,945.654 2467.74,946.954 2469.87,948.248 2472,949.537 2474.12,950.82 2476.25,952.097 2478.38,953.369 2480.5,954.635 2482.63,955.895 
  2484.76,957.15 2486.88,958.399 2489.01,959.643 2491.14,960.881 2493.26,962.114 2495.39,963.341 2497.52,964.562 2499.65,965.778 2501.77,966.989 2503.9,968.193 
  2506.03,969.393 2508.15,970.587 2510.28,971.776 2512.41,972.959 2514.53,974.136 2516.66,975.308 2518.79,976.475 2520.92,977.637 2523.04,978.793 2525.17,979.943 
  2527.3,981.088 2529.42,982.228 2531.55,983.363 2533.68,984.492 2535.8,985.616 2537.93,986.735 2540.06,987.848 2542.19,988.956 2544.31,990.059 2546.44,991.156 
  2548.57,992.249 2550.69,993.336 2552.82,994.418 2554.95,995.494 2557.07,996.566 2559.2,997.632 2561.33,998.693 2563.46,999.749 2565.58,1000.8 2567.71,1001.85 
  2569.84,1002.89 2571.96,1003.92 2574.09,1004.95 2576.22,1005.98 2578.34,1007 2580.47,1008.01 2582.6,1009.02 2584.72,1010.03 2586.85,1011.03 2588.98,1012.03 
  2591.11,1013.02 2593.23,1014 2595.36,1014.98 2597.49,1015.96 2599.61,1016.93 2601.74,1017.9 2603.87,1018.86 2605.99,1019.81 2608.12,1020.77 2610.25,1021.71 
  2612.38,1022.65 2614.5,1023.59 2616.63,1024.52 2618.76,1025.45 2620.88,1026.38 2623.01,1027.29 2625.14,1028.21 2627.26,1029.12 2629.39,1030.02 2631.52,1030.92 
  2633.65,1031.81 2635.77,1032.71 2637.9,1033.59 2640.03,1034.47 2642.15,1035.35 2644.28,1036.22 2646.41,1037.09 2648.53,1037.95 2650.66,1038.81 2652.79,1039.66 
  2654.92,1040.51 2657.04,1041.36 2659.17,1042.2 2661.3,1043.04 2663.42,1043.87 2665.55,1044.7 2667.68,1045.52 2669.8,1046.34 2671.93,1047.15 2674.06,1047.96 
  2676.18,1048.77 
  "/>
</svg>
